<?xml version="1.0" encoding="iso-8859-1"?>
<!-- Generator: Adobe Illustrator 18.0.0, SVG Export Plug-In . SVG Version: 6.00 Build 0)  -->
<!DOCTYPE svg PUBLIC "-//W3C//DTD SVG 1.1//EN" "http://www.w3.org/Graphics/SVG/1.1/DTD/svg11.dtd">
<svg version="1.1" id="Capa_1" xmlns="http://www.w3.org/2000/svg" xmlns:xlink="http://www.w3.org/1999/xlink" x="0px" y="0px"
	 viewBox="0 0 297.5 297.5" style="enable-background:new 0 0 297.5 297.5;" xml:space="preserve">
<g>
	<g id="XMLID_17_">
		<g>
			<path style="fill:#DEC978;" d="M136.548,146.466c2.54,0,4.61,2.08,4.61,4.64c0,2.55-2.07,4.64-4.61,4.64
				c-2.55,0-4.62-2.09-4.62-4.64C131.928,148.546,133.997,146.466,136.548,146.466z"/>
			<path style="fill:#7AC1A3;" d="M274.798,99.936l-2.45,2.45c-1.04,1.04-2.8,1.04-3.84,0c-1.9-1.9-4.54-2.89-7.22-2.7
				c-2.69,0.19-5.16,1.53-6.78,3.68l-41.99,55.65v-29.81l37.33-31.15c2-1.67,3.21-4.11,3.33-6.72c0.12-2.61-0.87-5.15-2.72-7
				c-0.67-0.68-0.78-1.49-0.78-1.92c0-0.42,0.11-1.23,0.78-1.91l2.45-2.45L274.798,99.936z"/>
			<path style="fill:#96B6C5;" d="M193.917,83.976v134.25c0,2.74-2.32,5.06-5.07,5.06H84.238c-2.74,0-5.06-2.32-5.06-5.06V83.976
				c0-2.74,2.32-5.06,5.06-5.06h104.61C191.598,78.916,193.917,81.236,193.917,83.976z M184.258,151.426
				c0.06-6.76-2.52-13.12-7.25-17.92c-4.14-4.2-9.5-6.76-15.29-7.33c-0.48-5.85-2.96-11.3-7.11-15.53c-4.7-4.8-10.99-7.47-17.7-7.51
				c-0.06,0-0.11,0-0.17,0c-12.98,0-23.72,9.97-24.98,22.72c-12.74,1.1-22.83,11.83-22.93,24.93c-0.05,6.75,2.53,13.11,7.26,17.91
				c4.14,4.2,9.5,6.76,15.29,7.33c0.48,5.88,2.98,11.35,7.16,15.59c4.7,4.77,10.97,7.42,17.65,7.46c0.05,0,0.11,0,0.17,0
				c12.97,0,23.72-9.97,24.97-22.72C174.077,175.256,184.167,164.526,184.258,151.426z"/>
			<path style="fill:#D5797C;" d="M147.038,170.616c0.32,1.08,0.47,2.19,0.46,3.32c-0.04,6.19-5.04,11.18-11.15,11.18
				c-0.02,0-0.05,0-0.07,0c-2.95-0.01-5.72-1.19-7.8-3.29c-2.11-2.14-3.26-4.99-3.23-8.02c0-1.13,0.18-2.24,0.51-3.31
				c0.46-1.44,0.41-2.96-0.06-4.34c3.05,2.22,6.79,3.54,10.85,3.54c3.94,0,7.59-1.25,10.6-3.35
				C146.678,167.696,146.607,169.186,147.038,170.616z"/>
			<path style="fill:#D5797C;" d="M167.077,143.306c2.11,2.14,3.26,4.98,3.23,8.01c-0.04,6.18-5.04,11.18-11.15,11.18
				c-0.02,0-0.05,0-0.07,0c-1.11-0.01-2.2-0.18-3.26-0.52c-1.42-0.45-2.92-0.41-4.29,0.04c2.24-3.07,3.57-6.83,3.57-10.91
				c0-4-1.28-7.7-3.43-10.74c1.37,0.48,2.89,0.55,4.34,0.11c1.05-0.32,2.17-0.46,3.26-0.47
				C162.228,140.026,164.997,141.196,167.077,143.306z"/>
			<path style="fill:#D5797C;" d="M117.257,140.216c1.42,0.46,2.92,0.42,4.29-0.03c-2.23,3.07-3.57,6.83-3.57,10.92
				c0,3.99,1.28,7.69,3.43,10.72c-0.74-0.25-1.52-0.4-2.3-0.4c-0.68,0-1.36,0.1-2.03,0.31c-1.02,0.31-2.09,0.46-3.17,0.46
				c-0.03,0-0.07,0-0.09,0c-2.95-0.02-5.72-1.19-7.8-3.3c-2.11-2.14-3.26-4.98-3.24-8.01c0.05-6.17,5.04-11.17,11.16-11.17
				c0.03,0,0.06,0,0.08,0C115.128,139.716,116.217,139.886,117.257,140.216z"/>
			<path style="fill:#D5797C;" d="M144.637,120.406c2.1,2.14,3.24,4.97,3.21,7.99c0,1.12-0.18,2.24-0.52,3.32
				c-0.45,1.44-0.4,2.96,0.07,4.33c-3.05-2.21-6.8-3.54-10.85-3.54c-3.94,0-7.59,1.25-10.6,3.35c0.47-1.35,0.53-2.84,0.11-4.27
				c-0.32-1.07-0.47-2.19-0.47-3.32c0.05-6.18,5.04-11.18,11.15-11.18c0.03,0,0.05,0,0.08,0
				C139.777,117.106,142.557,118.286,144.637,120.406z"/>
			<path d="M294.527,93.366c3.63,3.63,3.63,9.52,0,13.15l-9.03,9.03c-5.66,5.66-13.75,7.46-20.95,5.41l-52.03,68.96v28.31
				c0,13.05-10.62,23.67-23.67,23.67H84.238c-13.05,0-23.67-10.62-23.67-23.67v-24.09l-47.64-47.35
				c-16.9-16.9-16.9-44.36-0.02-61.23c8.17-8.18,19.04-12.68,30.61-12.68c6.37,0,12.53,1.37,18.15,3.97
				c3.04-9.57,12.01-16.53,22.57-16.53h104.61c13.05,0,23.67,10.61,23.67,23.66v21l19.49-16.27c-0.61-2.01-0.93-4.12-0.93-6.29
				c0-5.7,2.21-11.05,6.23-15.07l9.02-9.02c3.64-3.63,9.53-3.63,13.16,0L294.527,93.366z M272.348,102.386l2.45-2.45l-21.89-21.88
				l-2.45,2.45c-0.67,0.68-0.78,1.49-0.78,1.91c0,0.43,0.11,1.24,0.78,1.92c1.85,1.85,2.84,4.39,2.72,7
				c-0.12,2.61-1.33,5.05-3.33,6.72l-37.33,31.15v29.81l41.99-55.65c1.62-2.15,4.09-3.49,6.78-3.68c2.68-0.19,5.32,0.8,7.22,2.7
				C269.548,103.426,271.307,103.426,272.348,102.386z M193.917,218.226V83.976c0-2.74-2.32-5.06-5.07-5.06H84.238
				c-2.74,0-5.06,2.32-5.06,5.06v134.25c0,2.74,2.32,5.06,5.06,5.06h104.61C191.598,223.286,193.917,220.966,193.917,218.226z
				 M60.568,167.906v-69.58c-4.61-4.42-10.64-6.85-17.05-6.85c-6.6,0-12.79,2.57-17.46,7.23c-9.62,9.62-9.62,25.28,0,34.91
				L60.568,167.906z"/>
			<path d="M177.008,133.506c4.73,4.8,7.31,11.16,7.25,17.92c-0.09,13.1-10.18,23.83-22.93,24.93c-1.25,12.75-12,22.72-24.97,22.72
				c-0.06,0-0.12,0-0.17,0c-6.68-0.04-12.95-2.69-17.65-7.46c-4.18-4.24-6.68-9.71-7.16-15.59c-5.79-0.57-11.15-3.13-15.29-7.33
				c-4.73-4.8-7.31-11.16-7.26-17.91c0.1-13.1,10.19-23.83,22.93-24.93c1.26-12.75,12-22.72,24.98-22.72c0.06,0,0.11,0,0.17,0
				c6.71,0.04,13,2.71,17.7,7.51c4.15,4.23,6.63,9.68,7.11,15.53C167.508,126.746,172.868,129.306,177.008,133.506z
				 M170.307,151.316c0.03-3.03-1.12-5.87-3.23-8.01c-2.08-2.11-4.85-3.28-7.8-3.3c-1.09,0.01-2.21,0.15-3.26,0.47
				c-1.45,0.44-2.97,0.37-4.34-0.11c2.15,3.04,3.43,6.74,3.43,10.74c0,4.08-1.33,7.84-3.57,10.91c1.37-0.45,2.87-0.49,4.29-0.04
				c1.06,0.34,2.15,0.51,3.26,0.52c0.02,0,0.05,0,0.07,0C165.268,162.496,170.268,157.496,170.307,151.316z M147.848,128.396
				c0.03-3.02-1.11-5.85-3.21-7.99c-2.08-2.12-4.86-3.3-7.82-3.32c-0.03,0-0.05,0-0.08,0c-6.11,0-11.1,5-11.15,11.18
				c0,1.13,0.15,2.25,0.47,3.32c0.42,1.43,0.36,2.92-0.11,4.27c3.01-2.1,6.66-3.35,10.6-3.35c4.05,0,7.8,1.33,10.85,3.54
				c-0.47-1.37-0.52-2.89-0.07-4.33C147.667,130.636,147.848,129.516,147.848,128.396z M147.497,173.936
				c0.01-1.13-0.14-2.24-0.46-3.32c-0.43-1.43-0.36-2.92,0.11-4.27c-3.01,2.1-6.66,3.35-10.6,3.35c-4.06,0-7.8-1.32-10.85-3.54
				c0.47,1.38,0.52,2.9,0.06,4.34c-0.33,1.07-0.51,2.18-0.51,3.31c-0.03,3.03,1.12,5.88,3.23,8.02c2.08,2.1,4.85,3.28,7.8,3.29
				c0.02,0,0.05,0,0.07,0C142.458,185.116,147.458,180.126,147.497,173.936z M141.158,151.106c0-2.56-2.07-4.64-4.61-4.64
				c-2.55,0-4.62,2.08-4.62,4.64c0,2.55,2.07,4.64,4.62,4.64C139.087,155.746,141.158,153.656,141.158,151.106z M121.548,140.186
				c-1.37,0.45-2.87,0.49-4.29,0.03c-1.04-0.33-2.13-0.5-3.24-0.5c-0.02,0-0.05,0-0.08,0c-6.12,0-11.11,5-11.16,11.17
				c-0.02,3.03,1.13,5.87,3.24,8.01c2.08,2.11,4.85,3.28,7.8,3.3c0.02,0,0.06,0,0.09,0c1.08,0,2.15-0.15,3.17-0.46
				c0.67-0.21,1.35-0.31,2.03-0.31c0.78,0,1.56,0.15,2.3,0.4c-2.15-3.03-3.43-6.73-3.43-10.72
				C117.978,147.016,119.318,143.256,121.548,140.186z"/>
		</g>
		<g>
		</g>
	</g>
</g>
<g>
</g>
<g>
</g>
<g>
</g>
<g>
</g>
<g>
</g>
<g>
</g>
<g>
</g>
<g>
</g>
<g>
</g>
<g>
</g>
<g>
</g>
<g>
</g>
<g>
</g>
<g>
</g>
<g>
</g>
</svg>
